<svg xmlns="http://www.w3.org/2000/svg" viewBox="0 0 500 500"><g id="freepik--Floor--inject-139"><ellipse id="freepik--floor--inject-139" cx="250" cy="343.94" rx="231.53" ry="130.13" style="fill:#f5f5f5"></ellipse></g><g id="freepik--Shadows--inject-139"><ellipse id="freepik--Shadow--inject-139" cx="79.91" cy="335.22" rx="47.36" ry="27.34" style="fill:#e0e0e0"></ellipse><ellipse id="freepik--shadow--inject-139" cx="421.13" cy="335.22" rx="47.36" ry="27.34" style="fill:#e0e0e0"></ellipse><ellipse id="freepik--shadow--inject-139" cx="250.33" cy="358.68" rx="144.42" ry="83.38" style="fill:#e0e0e0"></ellipse></g><g id="freepik--pie-chart--inject-139"><g id="freepik--pie-chart--inject-139"><path d="M250.13,275.24l-89.75-51.81c38-21.66,97.65-28.14,146.85-13.61,60.78,18,90.19,63.87,60.88,99.64Z" style="fill:#E7E7E7"></path><polygon points="250.13 275.24 250.13 346.73 368.11 380.94 368.11 309.46 250.13 275.24" style="fill:#E7E7E7"></polygon><polygon points="250.13 275.24 250.13 346.73 368.11 380.94 368.11 309.46 250.13 275.24" style="opacity:0.15"></polygon><polygon points="160.38 223.43 160.38 294.91 250.13 346.73 250.13 275.24 160.38 223.43" style="fill:#E7E7E7"></polygon><polygon points="160.38 223.43 160.38 294.91 250.13 346.73 250.13 275.24 160.38 223.43" style="opacity:0.2"></polygon><path d="M368.11,380.94c7.8-9.52,11.44-19.76,11.44-30V279.46c0,10.24-3.64,20.48-11.44,30Z" style="fill:#E7E7E7"></path><path d="M368.11,380.94c7.8-9.52,11.44-19.76,11.44-30V279.46c0,10.24-3.64,20.48-11.44,30Z" style="opacity:0.30000000000000004"></path><path d="M342.29,341.54a177.64,177.64,0,0,1-29.74,13.52l-51.44-58.33L362.06,326.4A91.48,91.48,0,0,1,342.29,341.54Z" style="fill:#455a64"></path><polygon points="261.11 296.73 261.11 358.37 312.55 416.69 312.55 355.06 261.11 296.73" style="fill:#263238"></polygon><path d="M312.55,416.69a176.85,176.85,0,0,0,29.74-13.52A91.48,91.48,0,0,0,362.06,388V326.4a91.48,91.48,0,0,1-19.77,15.14,177.64,177.64,0,0,1-29.74,13.52Z" style="fill:#37474f"></path><path d="M182,375.09c-9.72-3.19-17.66-7.86-26-12.58-42.24-24-49-73.19-4.64-101.57l86.94,49.95Z" style="fill:#E7E7E7"></path><path d="M182,375.09c-9.72-3.19-17.66-7.86-26-12.58-42.24-24-49-73.19-4.64-101.57l86.94,49.95Z" style="opacity:0.30000000000000004"></path><polygon points="238.35 310.89 182.02 375.09 182.02 414.72 238.35 350.52 238.35 310.89" style="fill:#E7E7E7"></polygon><polygon points="238.35 310.89 182.02 375.09 182.02 414.72 238.35 350.52 238.35 310.89" style="opacity:0.5"></polygon><path d="M182,414.72c-9.72-3.19-17.66-7.86-26-12.58-22.5-12.78-34.94-32.71-34.94-52.83V309.46c0,20.12,12.44,40.05,34.94,52.83,8.31,4.72,16.25,9.39,26,12.58Z" style="fill:#E7E7E7"></path><path d="M182,414.72c-9.72-3.19-17.66-7.86-26-12.58-22.5-12.78-34.94-32.71-34.94-52.83V309.46c0,20.12,12.44,40.05,34.94,52.83,8.31,4.72,16.25,9.39,26,12.58Z" style="opacity:0.4"></path><path d="M300.94,392.72C267.48,402,226.61,400.28,193,391l53.28-60.28Z" style="fill:#E7E7E7"></path><path d="M300.94,392.72C267.48,402,226.61,400.28,193,391l53.28-60.28Z" style="fill:#fff;opacity:0.7000000000000001"></path><path d="M193,418.33c33.62,9.27,74.49,11,108,1.71V392.72C267.48,402,226.61,400.28,193,391Z" style="fill:#E7E7E7"></path><path d="M193,418.33c33.62,9.27,74.49,11,108,1.71V392.72C267.48,402,226.61,400.28,193,391Z" style="fill:#fff;opacity:0.5"></path></g><g id="freepik--Line--inject-139"><circle cx="172.9" cy="317.89" r="4.84" style="fill:#263238"></circle><path d="M172.9,318.49a.62.62,0,0,1-.32-.09L119.83,285h-14a.6.6,0,0,1,0-1.2H120a.58.58,0,0,1,.32.1l52.9,33.52a.59.59,0,0,1,.18.82A.58.58,0,0,1,172.9,318.49Z" style="fill:#263238"></path></g><g id="freepik--line--inject-139"><path d="M304.67,322.83a4.84,4.84,0,1,0,4.84-4.84A4.84,4.84,0,0,0,304.67,322.83Z" style="fill:#263238"></path><path d="M309.51,323.43a.6.6,0,0,1-.52-.3.59.59,0,0,1,.22-.81l58.07-33.53a.6.6,0,0,1,.29-.08h22.72a.6.6,0,0,1,.6.6.59.59,0,0,1-.6.59H367.73L309.8,323.35A.6.6,0,0,1,309.51,323.43Z" style="fill:#263238"></path></g></g><g id="freepik--percentage-signs--inject-139"><g id="freepik--percentage-box--inject-139"><path d="M379.13,85.84,339.05,62.7a3,3,0,0,0-3.08-.29l-12.15,7a3,3,0,0,0-1.29,2.81v41.59a9.56,9.56,0,0,0,4.34,7.5L367,144.49a3,3,0,0,0,3.06.3c.78-.45,11.39-6.6,12.17-7a3,3,0,0,0,1.28-2.81V93.34A9.58,9.58,0,0,0,379.13,85.84Z" style="fill:#37474f"></path><path d="M383.47,93.34v41.6a3,3,0,0,1-1.28,2.81l-12.09,7a3.12,3.12,0,0,0,1.17-2.75v-41.6A8.77,8.77,0,0,0,370,96.13l12.2-7A8.84,8.84,0,0,1,383.47,93.34Z" style="fill:#263238"></path><path d="M326.87,121.34,367,144.49c2.39,1.38,4.33.26,4.33-2.5v-41.6a9.58,9.58,0,0,0-4.33-7.5L326.86,69.75c-2.39-1.38-4.33-.26-4.33,2.5v41.59A9.56,9.56,0,0,0,326.87,121.34Z" style="fill:#455a64"></path><path d="M352.79,94.24a1.2,1.2,0,0,1,.47-.42.8.8,0,0,1,.68.15l2.23,1.26a1.55,1.55,0,0,1,.56.6,1.71,1.71,0,0,1,.21.83,1.24,1.24,0,0,1,0,.23,1.17,1.17,0,0,1-.09.24L341,120a1.27,1.27,0,0,1-.46.42.82.82,0,0,1-.69-.15L337.64,119a1.37,1.37,0,0,1-.55-.59,1.73,1.73,0,0,1-.21-.83,1,1,0,0,1,0-.23.64.64,0,0,1,.1-.24Z" style="fill:#fafafa"></path><path d="M360.21,121.1a13,13,0,0,0-1.47-5.59,9.54,9.54,0,0,0-3.71-3.89c-1.58-.91-2.81-1-3.71-.4s-1.38,2-1.47,3.9q-.06,1.35-.06,2.4c0,.71,0,1.5.06,2.38a13.07,13.07,0,0,0,1.55,5.59,9.63,9.63,0,0,0,3.63,3.84c1.49.86,2.7,1,3.63.35s1.44-1.9,1.55-3.8c0-.83.06-1.6.06-2.3S360.25,122.05,360.21,121.1Zm-3.8,3.23a4,4,0,0,1-.36,1.62c-.2.36-.54.4-1,.13a2.28,2.28,0,0,1-1-1.31,7.58,7.58,0,0,1-.36-2c-.1-2.49-.1-3.83,0-6a3.87,3.87,0,0,1,.36-1.61c.2-.37.54-.41,1-.14a2.31,2.31,0,0,1,1,1.31,7.66,7.66,0,0,1,.36,2A55.13,55.13,0,0,1,356.41,124.33Z" style="fill:#fafafa"></path><path d="M344,94.44a13,13,0,0,0-1.47-5.6A9.54,9.54,0,0,0,338.78,85c-1.58-.91-2.81-1-3.71-.39s-1.38,2-1.47,3.9q-.06,1.33-.06,2.4c0,.7,0,1.5.06,2.37a13.12,13.12,0,0,0,1.55,5.6,9.63,9.63,0,0,0,3.63,3.84c1.49.86,2.7,1,3.63.35s1.44-1.9,1.55-3.81c0-.83.06-1.59.06-2.3S344,95.38,344,94.44Zm-3.8,3.23a3.87,3.87,0,0,1-.36,1.61c-.2.37-.54.41-1,.14a2.39,2.39,0,0,1-1-1.31,7.35,7.35,0,0,1-.35-2,55.06,55.06,0,0,1,0-6,3.82,3.82,0,0,1,.35-1.62c.21-.36.55-.41,1-.13a2.24,2.24,0,0,1,1,1.31,7.58,7.58,0,0,1,.36,2A55.13,55.13,0,0,1,340.16,97.67Z" style="fill:#fafafa"></path></g><g id="freepik--percentage-box--inject-139"><path d="M120.87,85.84,161,62.7a3,3,0,0,1,3.08-.29l12.15,7a3,3,0,0,1,1.29,2.81v41.59a9.56,9.56,0,0,1-4.34,7.5l-40.08,23.15a3,3,0,0,1-3.06.3c-.78-.45-11.39-6.6-12.17-7a3,3,0,0,1-1.28-2.81V93.34A9.58,9.58,0,0,1,120.87,85.84Z" style="fill:#37474f"></path><path d="M116.53,93.34v41.6a3,3,0,0,0,1.28,2.81l12.09,7a3.12,3.12,0,0,1-1.17-2.75v-41.6A8.77,8.77,0,0,1,130,96.13l-12.2-7A8.84,8.84,0,0,0,116.53,93.34Z" style="fill:#263238"></path><path d="M173.13,121.34l-40.08,23.15c-2.39,1.38-4.33.26-4.33-2.5v-41.6a9.58,9.58,0,0,1,4.33-7.5l40.09-23.14c2.39-1.38,4.33-.26,4.33,2.5v41.59A9.56,9.56,0,0,1,173.13,121.34Z" style="fill:#455a64"></path><path d="M159,87.44a6.18,6.18,0,0,1,.46-1,1.86,1.86,0,0,1,.69-.64l2.22-1.31c.24-.13.42-.15.56,0a.69.69,0,0,1,.21.59,1.57,1.57,0,0,1,0,.27,2.68,2.68,0,0,1-.1.35l-15.79,41.1a6.18,6.18,0,0,1-.46,1,1.94,1.94,0,0,1-.69.64l-2.22,1.3c-.24.14-.42.16-.56.06a.7.7,0,0,1-.21-.6,1.58,1.58,0,0,1,0-.26,2.68,2.68,0,0,1,.1-.35Z" style="fill:#fafafa"></path><path d="M167.15,105.28q-.14-2.93-1.47-3.9t-3.71.4a9.51,9.51,0,0,0-3.71,3.88,12.76,12.76,0,0,0-1.47,5.6c0,.94-.06,1.77-.06,2.47s0,1.48.06,2.3c.11,1.91.62,3.18,1.55,3.81s2.14.51,3.63-.35a9.63,9.63,0,0,0,3.63-3.84,13.12,13.12,0,0,0,1.55-5.6q.06-1.3.06-2.37T167.15,105.28Zm-3.81,7.62a7.29,7.29,0,0,1-.35,2,2.36,2.36,0,0,1-1,1.31c-.48.27-.82.23-1-.14a3.87,3.87,0,0,1-.36-1.61,55.13,55.13,0,0,1,0-6,7.58,7.58,0,0,1,.36-2,2.28,2.28,0,0,1,1-1.31c.47-.28.81-.23,1,.13a3.82,3.82,0,0,1,.35,1.62A55.06,55.06,0,0,1,163.34,112.9Z" style="fill:#fafafa"></path><path d="M149.14,98.27q-.12-2.92-1.47-3.9t-3.71.39a9.58,9.58,0,0,0-3.7,3.89,12.76,12.76,0,0,0-1.47,5.6c0,.94-.07,1.76-.07,2.47s0,1.47.07,2.3c.1,1.91.62,3.17,1.55,3.8s2.13.52,3.62-.34a9.66,9.66,0,0,0,3.63-3.85,12.89,12.89,0,0,0,1.55-5.59c0-.88.07-1.67.07-2.37S149.18,99.16,149.14,98.27Zm-3.8,7.61a7.58,7.58,0,0,1-.36,2,2.24,2.24,0,0,1-1,1.31c-.47.28-.81.23-1-.13a3.59,3.59,0,0,1-.36-1.62,55.13,55.13,0,0,1,0-6,6.86,6.86,0,0,1,.36-2,2.27,2.27,0,0,1,1-1.31c.48-.28.82-.23,1,.13a3.91,3.91,0,0,1,.36,1.61A55.06,55.06,0,0,1,145.34,105.88Z" style="fill:#fafafa"></path></g></g></svg>